PathFileType	4	(X/Y/Z)	Kaydara	
DataRate	CameraRate	NumFrames	NumMarkers	Units	OrigDataRate	OrigDataStartFrame	OrigNumFrames	
240.00	240.00	4	72	mm	240.00	180	359	
Frame#	Time	Hips			RightUpLeg			RightLeg			RightFoot			RightFoot_End			LeftUpLeg			LeftLeg			LeftFoot			LeftFoot_End			Spine			Spine1			Spine2			Spine3			Neck			Head			Head_End			RightShoulder			RightArm			RightForeArm			RightHand			RightHandThumb1			RightHandThumb2			RightHandThumb3			RightHandThumb3_End			RightInHandIndex			RightHandIndex1			RightHandIndex2			RightHandIndex3			RightHandIndex3_End			RightInHandMiddle			RightHandMiddle1			RightHandMiddle2			RightHandMiddle3			RightHandMiddle3_End			RightInHandRing			RightHandRing1			RightHandRing2			RightHandRing3			RightHandRing3_End			RightInHandPinky			RightHandPinky1			RightHandPinky2			RightHandPinky3			RightHandPinky3_End			LeftShoulder			LeftArm			LeftForeArm			LeftHand			LeftHandThumb1			LeftHandThumb2			LeftHandThumb3			LeftHandThumb3_End			LeftInHandIndex			LeftHandIndex1			LeftHandIndex2			LeftHandIndex3			LeftHandIndex3_End			LeftInHandMiddle			LeftHandMiddle1			LeftHandMiddle2			LeftHandMiddle3			LeftHandMiddle3_End			LeftInHandRing			LeftHandRing1			LeftHandRing2			LeftHandRing3			LeftHandRing3_End			LeftInHandPinky			LeftHandPinky1			LeftHandPinky2			LeftHandPinky3			LeftHandPinky3_End			
		X1	Y1	Z1	X2	Y2	Z2	X3	Y3	Z3	X4	Y4	Z4	X5	Y5	Z5	X6	Y6	Z6	X7	Y7	Z7	X8	Y8	Z8	X9	Y9	Z9	X10	Y10	Z10	X11	Y11	Z11	X12	Y12	Z12	X13	Y13	Z13	X14	Y14	Z14	X15	Y15	Z15	X16	Y16	Z16	X17	Y17	Z17	X18	Y18	Z18	X19	Y19	Z19	X20	Y20	Z20	X21	Y21	Z21	X22	Y22	Z22	X23	Y23	Z23	X24	Y24	Z24	X25	Y25	Z25	X26	Y26	Z26	X27	Y27	Z27	X28	Y28	Z28	X29	Y29	Z29	X30	Y30	Z30	X31	Y31	Z31	X32	Y32	Z32	X33	Y33	Z33	X34	Y34	Z34	X35	Y35	Z35	X36	Y36	Z36	X37	Y37	Z37	X38	Y38	Z38	X39	Y39	Z39	X40	Y40	Z40	X41	Y41	Z41	X42	Y42	Z42	X43	Y43	Z43	X44	Y44	Z44	X45	Y45	Z45	X46	Y46	Z46	X47	Y47	Z47	X48	Y48	Z48	X49	Y49	Z49	X50	Y50	Z50	X51	Y51	Z51	X52	Y52	Z52	X53	Y53	Z53	X54	Y54	Z54	X55	Y55	Z55	X56	Y56	Z56	X57	Y57	Z57	X58	Y58	Z58	X59	Y59	Z59	X60	Y60	Z60	X61	Y61	Z61	X62	Y62	Z62	X63	Y63	Z63	X64	Y64	Z64	X65	Y65	Z65	X66	Y66	Z66	X67	Y67	Z67	X68	Y68	Z68	X69	Y69	Z69	X70	Y70	Z70	X71	Y71	Z71	X72	Y72	Z72	

180	0.746	7198.941	914.58397	126.699	7251.748445351999	894.5142753183147	52.60937947852098	7155.964544753237	498.66741097805857	-45.429718484942434	7141.41938424833	107.28171452257402	-121.67239813328167	6990.01353581412	30.56951140782384	-33.754031779267834	7160.173992146106	908.4019047744307	212.263439049417	7068.53387271626	506.3261304757934	285.31636340911126	6993.005753149706	81.74624003352545	372.00825935446835	6871.698492950738	-0.7718770897899505	249.47890237357927	7133.596856121542	1032.5508564102754	78.82798699645038	7072.513984186872	1088.9345036353561	28.56472975744087	7006.061982985424	1140.6791142340685	-27.494080612382948	6938.875485072131	1178.946961181559	-86.30949116074844	6865.912140914892	1220.2628208220428	-147.48740251089853	6797.839700703933	1258.339672398514	-200.63054669458646	6659.6634041480975	1336.6559485573182	-212.11114249456858	6908.602901666294	1203.9053626756902	-150.7627785185424	6956.824948147614	1173.9057609588074	-254.6115211963695	7007.087355724771	940.2069187793505	-240.48448684591924	6992.83684155586	819.262213874453	-392.65374019509886	6997.450060358543	833.3557458164717	-410.674740178827	6985.665680527363	838.4752789206341	-429.7190361541088	6977.398899350891	838.6093877904451	-443.21513471079885	6970.455795331448	835.7859430599881	-454.6661255519315	6999.401396251588	822.294136690386	-413.47399426697865	7001.658557089038	814.4394995707762	-444.824954623157	6993.915470296476	809.2670955610682	-464.9953901200024	6983.863046877653	809.6170557400928	-474.008391079446	6972.009094312904	812.3118537221328	-479.0894101782015	6998.716567912626	813.2493486542653	-412.9400103666868	7000.550367429919	800.6957581950654	-443.23043062258336	6991.991804570337	793.8840394218142	-465.06618289429696	6979.811451680117	793.7459708779577	-475.8564285509263	6966.815567844247	796.4221966525445	-481.3753360733337	6998.269767461228	807.0326692470036	-411.78720986085887	6999.802220435227	790.3066976390542	-438.0044034409555	6992.2268747553	783.1962604239045	-456.81046095562266	6980.4165197537	782.4399911290031	-467.0984482687894	6968.167992944595	784.6610517671415	-472.23071322814934	6996.943960769247	800.3076584782474	-409.35737728382435	6997.850419747806	780.7277043615579	-431.99793662026445	6991.596523266097	773.2765585563035	-446.5899330432988	6982.891136223631	771.8748339392477	-453.8680332266948	6971.988639465377	773.3530925914431	-458.2843198197414	6871.682453519583	1209.4266578711652	-102.43833295673942	6826.621338974179	1170.1669107376547	-0.49427810113131176	6931.838272171655	999.7507088413721	-129.1543899439003	6989.472942369716	871.4000001062938	-300.33406466754866	7008.440144903243	880.714610159625	-314.10653818278945	7035.868871886347	870.515159664446	-323.1192258242094	7054.365446420016	860.3399593827337	-330.14707043765947	7069.267856141519	849.2290660838291	-336.64869118079724	7007.274236668871	871.6229385190707	-319.07322335593074	7035.433727575262	855.9461976314725	-346.1269612441822	7058.972562205883	839.3367861073268	-359.5614985526446	7074.078329635271	829.6011341029441	-362.24259260392785	7086.899533143466	821.9411874794636	-360.63636453353945	7004.836577989622	863.5414940853273	-319.91900906084584	7030.982844715825	843.8812418635281	-346.7654351469074	7056.26033599477	824.7344725356602	-361.4422992109965	7074.289073305809	812.498053558284	-364.68513325707625	7088.222599109369	803.8781311053463	-362.9316086161582	7002.357404189641	858.2666722953799	-319.89123556706807	7023.525276128875	836.1696821659498	-344.11719531867504	7045.099373145881	818.4666871693013	-356.88406676911427	7062.246372344744	806.1248822173743	-359.99846259254025	7075.232174258614	797.7646548729065	-358.3432660485064	6998.986579064347	852.3681787924772	-318.5630277807841	7016.203823877386	828.5758361190316	-340.1911025489122	7032.673222503459	812.9131518771608	-350.268368142015	7044.79026188101	803.1917815302359	-352.46940973440564	7056.069089357145	795.3720677962896	-350.9625358521116
181	0.75	7198.941	914.58397	126.699	7251.69040818143	894.453647263762	52.59593451816978	7155.89283504736	498.62191562457355	-45.48862504286463	7141.423675111993	107.23868023913604	-121.74618122314529	6990.021299146378	30.525623192351198	-33.82257462447351	7160.224421325811	908.4607397196105	212.28141322514645	7068.583267296999	506.37998883726135	285.3045272081661	6993.001173155463	81.79408105323776	371.90601334192	6871.7001141534865	-0.7288831235227335	249.37384744446433	7133.633397351776	1032.561773274169	78.80858932932627	7072.565237202314	1088.9438795146532	28.526356051048836	7006.127182310414	1140.6883962106633	-27.548866476501477	6938.951209261587	1178.9620990684743	-86.37298350406253	6865.998788042631	1220.2833942208058	-147.5607414135931	6797.937745754023	1258.3673039890687	-200.71382730378673	6659.788217840371	1336.7114410355255	-212.26857383152245	6908.641362250408	1203.8460959809815	-150.82529855897408	6956.601933594927	1173.4882585821813	-254.48734059874764	7006.337642326305	940.2463180514344	-239.46646888810204	6991.634748524605	819.3616344113491	-390.4358382680174	6996.201608224261	833.4598775063215	-408.28488664095295	6984.492184397582	838.5647473319875	-427.1501607656953	6976.278437964987	838.6869793641074	-440.52289361029983	6969.380261346756	835.8522087934604	-451.87215628916545	6998.138701925222	822.394204946908	-411.07109473238563	7000.362579776162	814.5279962835064	-442.1526019141081	6992.665682744807	809.339665916245	-462.14593092742786	6982.681944798601	809.677657249016	-471.0743823974076	6970.911803723957	812.3611540925053	-476.1026592943047	6997.460600461843	813.3449160254597	-410.5505337121283	6999.265555547113	800.7776067392354	-440.58539493578985	6990.758477079199	793.9479429515247	-462.2305469174206	6978.661510113061	793.7951627463515	-472.92006238369805	6965.757583759719	796.4588909250996	-478.3818805285524	6997.018696518287	807.1254187863403	-409.41394173178765	6998.527485959443	790.3849016170808	-435.4157325161227	6990.9981736310465	783.2582656392976	-454.0587834227401	6979.268866742622	782.4875095456803	-464.251266116159	6967.107094990442	784.696678929089	-469.3306382333094	6995.705054096386	800.396969636821	-407.0117842912708	6996.594930697039	780.8017749507093	-429.4712462245708	6990.379813147674	773.3368504630905	-443.93852303631945	6981.734470319855	771.9241685846471	-451.1497722657814	6970.909358163021	773.3916687589781	-455.52082189526686	6871.8119868070635	1209.5253408126014	-102.51715035302087	6826.895437274473	1170.7312752535468	-0.5555676798434179	6931.582803775329	1000.0561507420298	-128.27780099851952	6988.464053738594	871.3474586630904	-298.56159971053796	7007.250342213856	880.6387397748599	-312.25923275543516	7034.474278535005	870.4274868078203	-321.27394259425006	7052.833558199631	860.2438554912742	-328.29770735150174	7067.6260634295195	849.1257524166986	-334.7912319704878	7006.087964606568	871.5424845768104	-317.18815987109235	7033.991534296848	855.8295931407838	-344.0980469661046	7057.3466454608	839.2040192334869	-357.49240066254134	7072.350626984019	829.4662340587178	-360.19703695299285	7085.095970058614	821.8098607073123	-358.6430259801373	7003.67341927163	863.4621498940992	-318.0268738353972	7029.5825717595	843.7672352083191	-344.72914997498617	7054.663457039514	824.6031044287095	-359.36177407688	7072.571251911841	812.3642438221867	-362.63282317859927	7086.422676163895	803.7482953142214	-360.9363422482187	7001.217146751537	858.1889347267586	-317.997102050821	7022.192516930116	836.0619824687197	-342.09017113742135	7043.59958310788	818.3441918991844	-354.8183171740034	7060.632224118868	806.0002106343692	-357.9598407736411	7073.54192001892	797.6438045592695	-356.3582381015525	6997.879807912104	852.2941273291203	-316.67605989573235	7014.941190370737	828.4762291218259	-338.18436118611095	7031.2844339586045	812.8023538772236	-348.230942920549	7043.321734964073	803.0797138009034	-350.4519293210443	7054.5352598870195	795.2635679395398	-348.99262166092444
182	0.754	7198.941	914.58397	126.699	7251.632011199459	894.3926390234475	52.58241000115522	7155.8207184073835	498.5761103182013	-45.5478333640432	7141.428133197963	107.19535402713468	-121.82037808760357	6990.029232884269	30.481411042090876	-33.891553960119246	7160.275180325999	908.5199571714348	212.29950484154412	7068.633068717734	506.4341896575408	285.29267913463815	6992.996797060087	81.84220410736559	371.803193251819	6871.701974840328	-0.6856510718645779	249.2682133035717	7133.670088530399	1032.5726978737416	78.78902756550981	7072.616628231554	1088.9531968174986	28.487759998999884	7006.192478513591	1140.697546554083	-27.603892566432	6939.026943669029	1178.9770472139917	-86.43665264768825	6866.085360937274	1220.303717435216	-147.6341950935938	6798.035658818046	1258.3946492109494	-200.79717314533144	6659.913116997167	1336.7669288908432	-212.42641892783556	6908.679484047871	1203.786141046397	-150.88795296135066	6956.376810219976	1173.0681980705383	-254.36259997254732	7005.583425312989	940.2855750138258	-238.44285809200557	6990.4254066249305	819.4597014987999	-388.20314691567705	6994.945592156973	833.5622238528578	-405.8793833262656	6983.3114621236255	838.651873190254	-424.5644275854832	6975.150977478151	838.7618523271497	-437.8128905564541	6968.297910528458	835.915452664974	-449.05961750371995	6996.868309764224	822.4925004515682	-408.6522383336196	6999.05851564542	814.6140837644226	-439.4622864153278	6991.4079416391505	809.4093346513589	-459.27712729480817	6981.49323060656	809.7350634981503	-468.12038503026736	6969.807358060289	812.4070245742611	-473.09553132355796	6996.196945632677	813.4387630400147	-408.1449996126008	6997.972682423889	800.8571424781546	-437.9222908764299	6989.517236910954	794.0090052986614	-459.3753281655356	6977.504069315423	793.8411634453657	-469.963332946568	6964.692601261648	796.4921393817745	-475.36763515846746	6995.759951277714	807.2165016821731	-407.02459533024125	6997.244741102213	790.4609559542889	-432.8091602513304	6989.761595465243	783.3176707200869	-451.2878808747168	6978.113737537879	782.5320955705718	-461.384104125929	6966.039192706724	784.7291367946264	-466.4101813966993	6994.4585328155545	800.4846909230284	-404.65015466059367	6995.331541254027	780.8738613118107	-426.92686889834374	6989.155316916379	773.3948151726277	-441.2683683079784	6980.570314314123	771.9709422786332	-448.41221705741947	6969.823006843164	773.4274790629918	-452.73767421409053	6871.94177949383	1209.6242637733972	-102.59611110538955	6827.170927245075	1171.2983332594968	-0.6167435723699004	6931.3268969287665	1000.3626301316559	-127.39503040239096	6987.450276324213	871.2931068271828	-296.77750507623375	7006.054517596635	880.5609946472364	-310.40009135015134	7033.072397076258	870.3380742200886	-319.416860420761	7051.293532321628	860.1460817873758	-326.4364883787872	7065.97545238772	849.0208066052002	-332.9217986260329	7004.89568664856	871.4600333118841	-315.2908864700397	7032.541727817212	855.7107473526928	-342.0559822111877	7055.7119729187825	839.0690029730082	-355.4098098744733	7070.6135434501875	829.329206918556	-358.1380872204868	7083.282566222391	821.6765939404182	-356.6365853865971	7002.504397083407	863.3807589995104	-316.12235124325525	7028.174944660347	843.6509171279961	-342.6794639697448	7053.058001118508	824.4694105471907	-357.2674544862894	7070.844110915059	812.2282532013032	-360.5668282783189	7084.612936029264	803.6164820728793	-358.9277059458284	7000.0711676178635	858.1091199452665	-316.09047590355306	7020.852823561706	835.9519364238887	-340.04964327734695	7042.091819937081	818.2193325678413	-352.7387020419627	7059.009400688986	805.8733119828784	-355.9074491994877	7071.842529476902	797.5209171468844	-354.35973174879234	6996.76752396779	852.217985114592	-314.77653600657897	7013.672060720813	828.3742698988611	-336.16408404215736	7029.888364488845	812.6891825312861	-346.17966730269166	7041.845437851898	802.9653692935159	-348.42065635284075	7052.993264898657	795.1529576562176	-347.0091660842826
183	0.758	7198.941	914.58397	126.699	7251.573257479044	894.3312537883751	52.56880667089111	7155.748198561887	498.52999742209056	-45.60734012575584	7141.432758376853	107.15173810797695	-121.89498455736883	6990.037336716396	30.436877203631816	-33.960965908617595	7160.326266488305	908.579554048087	212.3177129318411	7068.683274502976	506.48873011418937	285.28081993801175	6992.992625229209	81.89060670496582	371.69980464418705	6871.704075049468	-0.6421831705384755	249.16200565989914	7133.706927670216	1032.583629568174	78.76930265723001	7072.668154425654	1088.9624548871739	28.448943551551036	7006.25786793584	1140.7065645171508	-27.65915606551196	6939.102684055326	1178.9918045043164	-86.50049532633733	6866.171854759293	1220.3237890074645	-147.70775977737722	6798.133434435321	1258.421706180862	-200.88057993518441	6660.0380947636295	1336.8224087207218	-212.58466972555715	6908.7172647591615	1203.725500769301	-150.9507384128567	6956.149589629489	1172.6456021391575	-254.237305378651	7004.8247472569265	940.3246904164307	-237.41370841581565	6989.208883804898	819.5564168125343	-385.9557846306876	6993.68208292797	833.6627874947491	-403.45835663272584	6982.123581436256	838.7366605862292	-421.9619721870917	6974.01658344682	838.8340117886692	-435.0852676158076	6967.208806571671	835.9756806385603	-446.2286567631255	6995.590291227187	822.5890259265901	-406.21755261438005	6997.746438570971	814.6977664912682	-436.7541496635269	6990.142319157428	809.4761076262048	-456.3891302230506	6980.296973430039	809.7892811525921	-465.1465545429536	6968.695822580814	812.449472462674	-470.0681847182355	6994.925674484356	813.5308923858184	-405.72353539190175	6996.671821260491	800.9343697933739	-435.24125929779467	6988.268155350163	794.0672323428448	-456.5006777445095	6976.339196861684	793.8839798213779	-466.9863968158533	6963.620683675371	796.5219495561362	-472.3327596812375	6994.493602489349	807.3059205521001	-404.61929747381237	6995.954058364227	790.5348647215138	-430.1848251681197	6988.517211018927	783.3744810299299	-448.4979006714882	6976.9511992846965	782.5737554929972	-458.49711488278285	6964.964349225793	784.7584322959575	-463.46949823251333	6993.204466979014	800.5708248323108	-402.27261417144416	6994.060322763071	780.9439671943244	-424.3649405415808	6987.923104406465	773.4504574431667	-438.5796116320838	6979.398735346702	772.0151604418401	-445.65551408786035	6968.729649058752	773.4605294862432	-449.9350258008377	6872.071824494646	1209.723421065333	-102.67521125599954	6827.447794150726	1171.8680542886218	-0.6778036000471834	6931.070566845594	1000.6701327832828	-126.50612423515155	6986.431665394426	871.2369530961573	-294.9818756563005	7004.852735542871	880.4813856225396	-308.5292116448784	7031.663302126535	870.2469339105796	-317.5480766765064	7049.745450195702	860.046651047856	-324.56351114395795	7064.316109868448	848.9142420293597	-331.0404893787975	7003.697467191385	871.3755957810642	-313.38150328494436	7031.084385599405	855.5896744311694	-340.0008745270827	7054.068631224256	838.9317528564145	-353.31383604115183	7068.867170630913	829.1900684195359	-356.0658521713026	7081.459416821793	821.5414026530784	-354.61714891701877	7001.32957466949	863.2973321959486	-314.20554228532046	7026.760038784452	843.532301305918	-340.6164858356307	7051.444053422265	824.3334060199508	-355.1594517459581	7069.107741388014	812.0900970517492	-358.4872585923007	7082.79347366066	803.4827064392458	-356.90580691960474	6998.919528885852	858.0272384890455	-314.1714585841935	7019.506267988308	835.8395569608822	-337.9957205969223	7040.576163943482	818.0921233132407	-350.6453325760444	7057.377987923186	805.7442005928191	-353.8413978880494	7070.134092096524	797.3960066723714	-352.3478543707878	6995.649787627621	852.1397622353597	-312.8645576213942	7012.396503329784	828.2699704806719	-334.13037955704704	7028.485088796358	812.5736507470365	-344.11465169259793	7040.361449115673	802.8487610119433	-346.3757004114883	7051.443186042076	795.0402496651554	-345.012276391704
